REM DIRINDEX 1\2\4\8,1\2\4\9,1\2\4\10,1\2\5\11,1\2\5\12,1\2\5\13,1\2\5\14,1\2\5\15,1\3\6\16,1\3\6\17,1\3\6\18,1\3\7\19,1\3\7\20,1\3\7\21,1\3\7\22,1\3\7\23
REM DIRNAME "folder01","folder02","folder03","folder04","folder05","folder06","folder07","folder08","folder09","folder10","folder11","folder12","folder13","folder14","folder15","folder16","folder17","folder18","folder19","folder20","folder21","folder22","folder23"
TITLE ""
FILE "LR_black_phrase_E_A06.mp3" MP3
  TRACK 01 AUDIO
    TITLE "0:"
    INDEX 01 00:00:00
  TRACK 02 AUDIO
    TITLE "16:cjc171_08451"
    INDEX 01 00:00:18
  TRACK 03 AUDIO
    TITLE "0:"
    INDEX 01 00:01:39
  TRACK 04 AUDIO
    TITLE "17:cjc171_08452"
    INDEX 01 00:01:67
  TRACK 05 AUDIO
    TITLE "0:"
    INDEX 01 00:03:54
  TRACK 06 AUDIO
    TITLE "18:cjc171_08453"
    INDEX 01 00:04:32
  TRACK 07 AUDIO
    TITLE "0:"
    INDEX 01 00:06:19
  TRACK 08 AUDIO
    TITLE "16:cjc171_08454"
    INDEX 01 00:07:22
  TRACK 09 AUDIO
    TITLE "0:"
    INDEX 01 00:08:45
  TRACK 10 AUDIO
    TITLE "17:cjc171_08455"
    INDEX 01 00:08:74
  TRACK 11 AUDIO
    TITLE "0:"
    INDEX 01 00:11:34
  TRACK 12 AUDIO
    TITLE "18:cjc171_08456"
    INDEX 01 00:12:12
  TRACK 13 AUDIO
    TITLE "0:"
    INDEX 01 00:14:46
  TRACK 14 AUDIO
    TITLE "16:cjc171_08457"
    INDEX 01 00:15:49
  TRACK 15 AUDIO
    TITLE "0:"
    INDEX 01 00:16:60
  TRACK 16 AUDIO
    TITLE "17:cjc171_08458"
    INDEX 01 00:17:15
  TRACK 17 AUDIO
    TITLE "0:"
    INDEX 01 00:19:55
  TRACK 18 AUDIO
    TITLE "18:cjc171_08459"
    INDEX 01 00:20:33
  TRACK 19 AUDIO
    TITLE "0:"
    INDEX 01 00:22:71
  TRACK 20 AUDIO
    TITLE "16:cjc171_08460"
    INDEX 01 00:23:70
  TRACK 21 AUDIO
    TITLE "0:"
    INDEX 01 00:25:06
  TRACK 22 AUDIO
    TITLE "17:cjc171_08461"
    INDEX 01 00:25:28
  TRACK 23 AUDIO
    TITLE "0:"
    INDEX 01 00:27:42
  TRACK 24 AUDIO
    TITLE "18:cjc171_08462"
    INDEX 01 00:28:13
  TRACK 25 AUDIO
    TITLE "0:"
    INDEX 01 00:30:27
  TRACK 26 AUDIO
    TITLE "16:cjc171_08463"
    INDEX 01 00:31:25
  TRACK 27 AUDIO
    TITLE "0:"
    INDEX 01 00:32:30
  TRACK 28 AUDIO
    TITLE "17:cjc171_08464"
    INDEX 01 00:32:49
  TRACK 29 AUDIO
    TITLE "0:"
    INDEX 01 00:35:15
  TRACK 30 AUDIO
    TITLE "18:cjc171_08465"
    INDEX 01 00:35:60
  TRACK 31 AUDIO
    TITLE "0:"
    INDEX 01 00:38:25
  TRACK 32 AUDIO
    TITLE "16:cjc171_08466"
    INDEX 01 00:39:20
  TRACK 33 AUDIO
    TITLE "0:"
    INDEX 01 00:40:27
  TRACK 34 AUDIO
    TITLE "17:cjc171_08467"
    INDEX 01 00:40:47
  TRACK 35 AUDIO
    TITLE "0:"
    INDEX 01 00:43:40
  TRACK 36 AUDIO
    TITLE "18:cjc171_08468"
    INDEX 01 00:44:10
  TRACK 37 AUDIO
    TITLE "0:"
    INDEX 01 00:47:02
  TRACK 38 AUDIO
    TITLE "16:cjc171_08469"
    INDEX 01 00:48:05
  TRACK 39 AUDIO
    TITLE "0:"
    INDEX 01 00:49:22
  TRACK 40 AUDIO
    TITLE "17:cjc171_08470"
    INDEX 01 00:49:52
  TRACK 41 AUDIO
    TITLE "0:"
    INDEX 01 00:52:38
  TRACK 42 AUDIO
    TITLE "18:cjc171_08471"
    INDEX 01 00:53:16
  TRACK 43 AUDIO
    TITLE "0:"
    INDEX 01 00:56:03
  TRACK 44 AUDIO
    TITLE "16:cjc171_08472"
    INDEX 01 00:57:08
  TRACK 45 AUDIO
    TITLE "0:"
    INDEX 01 00:58:16
  TRACK 46 AUDIO
    TITLE "17:cjc171_08473"
    INDEX 01 00:58:47
  TRACK 47 AUDIO
    TITLE "0:"
    INDEX 01 01:00:75
  TRACK 48 AUDIO
    TITLE "18:cjc171_08474"
    INDEX 01 01:01:55
  TRACK 49 AUDIO
    TITLE "0:"
    INDEX 01 01:04:06
  TRACK 50 AUDIO
    TITLE "16:cjc171_08475"
    INDEX 01 01:05:12
  TRACK 51 AUDIO
    TITLE "0:"
    INDEX 01 01:06:37
  TRACK 52 AUDIO
    TITLE "17:cjc171_08476"
    INDEX 01 01:06:66
  TRACK 53 AUDIO
    TITLE "0:"
    INDEX 01 01:09:04
  TRACK 54 AUDIO
    TITLE "18:cjc171_08477"
    INDEX 01 01:09:60
  TRACK 55 AUDIO
    TITLE "0:"
    INDEX 01 01:11:75
  TRACK 56 AUDIO
    TITLE "16:cjc171_08478"
    INDEX 01 01:12:74
  TRACK 57 AUDIO
    TITLE "0:"
    INDEX 01 01:14:20
  TRACK 58 AUDIO
    TITLE "17:cjc171_08479"
    INDEX 01 01:14:42
  TRACK 59 AUDIO
    TITLE "0:"
    INDEX 01 01:16:72
  TRACK 60 AUDIO
    TITLE "18:cjc171_08480"
    INDEX 01 01:17:48
  TRACK 61 AUDIO
    TITLE "0:"
    INDEX 01 01:20:01
  TRACK 62 AUDIO
    TITLE "16:cjc171_08481"
    INDEX 01 01:21:03
  TRACK 63 AUDIO
    TITLE "0:"
    INDEX 01 01:22:22
  TRACK 64 AUDIO
    TITLE "17:cjc171_08482"
    INDEX 01 01:22:42
  TRACK 65 AUDIO
    TITLE "0:"
    INDEX 01 01:24:44
  TRACK 66 AUDIO
    TITLE "18:cjc171_08483"
    INDEX 01 01:25:14
  TRACK 67 AUDIO
    TITLE "0:"
    INDEX 01 01:27:17
  TRACK 68 AUDIO
    TITLE "16:cjc171_08484"
    INDEX 01 01:28:13
  TRACK 69 AUDIO
    TITLE "0:"
    INDEX 01 01:29:26
  TRACK 70 AUDIO
    TITLE "17:cjc171_08485"
    INDEX 01 01:29:45
  TRACK 71 AUDIO
    TITLE "0:"
    INDEX 01 01:32:22
  TRACK 72 AUDIO
    TITLE "18:cjc171_08486"
    INDEX 01 01:32:65
  TRACK 73 AUDIO
    TITLE "0:"
    INDEX 01 01:35:44
  TRACK 74 AUDIO
    TITLE "16:cjc171_08487"
    INDEX 01 01:36:44
  TRACK 75 AUDIO
    TITLE "0:"
    INDEX 01 01:37:59
  TRACK 76 AUDIO
    TITLE "17:cjc171_08488"
    INDEX 01 01:38:11
  TRACK 77 AUDIO
    TITLE "0:"
    INDEX 01 01:40:73
  TRACK 78 AUDIO
    TITLE "18:cjc171_08489"
    INDEX 01 01:41:53
  TRACK 79 AUDIO
    TITLE "0:"
    INDEX 01 01:44:37
  TRACK 80 AUDIO
    TITLE "16:cjc171_08490"
    INDEX 01 01:45:43
  TRACK 81 AUDIO
    TITLE "0:"
    INDEX 01 01:46:62
  TRACK 82 AUDIO
    TITLE "17:cjc171_08491"
    INDEX 01 01:47:14
  TRACK 83 AUDIO
    TITLE "0:"
    INDEX 01 01:49:40
  TRACK 84 AUDIO
    TITLE "18:cjc171_08492"
    INDEX 01 01:50:22
  TRACK 85 AUDIO
    TITLE "0:"
    INDEX 01 01:52:49
  TRACK 86 AUDIO
    TITLE "16:cjc171_08493"
    INDEX 01 01:53:54
  TRACK 87 AUDIO
    TITLE "0:"
    INDEX 01 01:55:16
  TRACK 88 AUDIO
    TITLE "17:cjc171_08494"
    INDEX 01 01:55:45
  TRACK 89 AUDIO
    TITLE "0:"
    INDEX 01 01:58:49
  TRACK 90 AUDIO
    TITLE "18:cjc171_08495"
    INDEX 01 01:59:25
  TRACK 91 AUDIO
    TITLE "0:"
    INDEX 01 02:02:27
  TRACK 92 AUDIO
    TITLE "16:cjc171_08496"
    INDEX 01 02:03:25
  TRACK 93 AUDIO
    TITLE "0:"
    INDEX 01 02:04:36
  TRACK 94 AUDIO
    TITLE "17:cjc171_08497"
    INDEX 01 02:04:58
  TRACK 95 AUDIO
    TITLE "0:"
    INDEX 01 02:06:49
  TRACK 96 AUDIO
    TITLE "18:cjc171_08498"
    INDEX 01 02:07:21
  TRACK 97 AUDIO
    TITLE "0:"
    INDEX 01 02:09:10
  TRACK 98 AUDIO
    TITLE "16:cjc171_08499"
    INDEX 01 02:10:05
  TRACK 99 AUDIO
    TITLE "0:"
    INDEX 01 02:11:05
  TRACK 100 AUDIO
    TITLE "17:cjc171_08500"
    INDEX 01 02:11:24
  TRACK 101 AUDIO
    TITLE "0:"
    INDEX 01 02:13:19
  TRACK 102 AUDIO
    TITLE "18:cjc171_08501"
    INDEX 01 02:13:64
  TRACK 103 AUDIO
    TITLE "0:"
    INDEX 01 02:15:59
  TRACK 104 AUDIO
    TITLE "16:cjc171_08502"
    INDEX 01 02:16:55
  TRACK 105 AUDIO
    TITLE "0:"
    INDEX 01 02:17:64
  TRACK 106 AUDIO
    TITLE "17:cjc171_08503"
    INDEX 01 02:18:09
  TRACK 107 AUDIO
    TITLE "0:"
    INDEX 01 02:20:61
  TRACK 108 AUDIO
    TITLE "18:cjc171_08504"
    INDEX 01 02:21:31
  TRACK 109 AUDIO
    TITLE "0:"
    INDEX 01 02:24:05
  TRACK 110 AUDIO
    TITLE "16:cjc171_08505"
    INDEX 01 02:25:07
  TRACK 111 AUDIO
    TITLE "0:"
    INDEX 01 02:26:12
  TRACK 112 AUDIO
    TITLE "17:cjc171_08506"
    INDEX 01 02:26:42
  TRACK 113 AUDIO
    TITLE "0:"
    INDEX 01 02:28:38
  TRACK 114 AUDIO
    TITLE "18:cjc171_08507"
    INDEX 01 02:29:18
  TRACK 115 AUDIO
    TITLE "0:"
    INDEX 01 02:31:13
  TRACK 116 AUDIO
    TITLE "16:cjc171_08508"
    INDEX 01 02:32:19
  TRACK 117 AUDIO
    TITLE "0:"
    INDEX 01 02:33:42
  TRACK 118 AUDIO
    TITLE "17:cjc171_08509"
    INDEX 01 02:33:73
  TRACK 119 AUDIO
    TITLE "0:"
    INDEX 01 02:36:30
  TRACK 120 AUDIO
    TITLE "18:cjc171_08510"
    INDEX 01 02:37:10
  TRACK 121 AUDIO
    TITLE "0:"
    INDEX 01 02:39:44
  TRACK 122 AUDIO
    TITLE "16:cjc171_08511"
    INDEX 01 02:40:48
  TRACK 123 AUDIO
    TITLE "0:"
    INDEX 01 02:41:53
  TRACK 124 AUDIO
    TITLE "17:cjc171_08512"
    INDEX 01 02:42:07
  TRACK 125 AUDIO
    TITLE "0:"
    INDEX 01 02:43:69
  TRACK 126 AUDIO
    TITLE "18:cjc171_08513"
    INDEX 01 02:44:47
  TRACK 127 AUDIO
    TITLE "0:"
    INDEX 01 02:46:34
  TRACK 128 AUDIO
    TITLE "16:cjc171_08514"
    INDEX 01 02:47:34
  TRACK 129 AUDIO
    TITLE "0:"
    INDEX 01 02:48:57
  TRACK 130 AUDIO
    TITLE "17:cjc171_08515"
    INDEX 01 02:49:03
  TRACK 131 AUDIO
    TITLE "0:"
    INDEX 01 02:51:16
  TRACK 132 AUDIO
    TITLE "18:cjc171_08516"
    INDEX 01 02:51:59
  TRACK 133 AUDIO
    TITLE "0:"
    INDEX 01 02:53:72
  TRACK 134 AUDIO
    TITLE "16:cjc171_08517"
    INDEX 01 02:54:67
  TRACK 135 AUDIO
    TITLE "0:"
    INDEX 01 02:56:03
  TRACK 136 AUDIO
    TITLE "17:cjc171_08518"
    INDEX 01 02:56:25
  TRACK 137 AUDIO
    TITLE "0:"
    INDEX 01 02:58:43
  TRACK 138 AUDIO
    TITLE "18:cjc171_08519"
    INDEX 01 02:59:12
  TRACK 139 AUDIO
    TITLE "0:"
    INDEX 01 03:01:30
  TRACK 140 AUDIO
    TITLE "16:cjc171_08520"
    INDEX 01 03:02:24
  TRACK 141 AUDIO
    TITLE "0:"
    INDEX 01 03:03:45
  TRACK 142 AUDIO
    TITLE "17:cjc171_08521"
    INDEX 01 03:03:66
  TRACK 143 AUDIO
    TITLE "0:"
    INDEX 01 03:05:49
  TRACK 144 AUDIO
    TITLE "18:cjc171_08522"
    INDEX 01 03:06:19
  TRACK 145 AUDIO
    TITLE "0:"
    INDEX 01 03:08:03
  TRACK 146 AUDIO
    TITLE "16:cjc171_08523"
    INDEX 01 03:09:04
  TRACK 147 AUDIO
    TITLE "0:"
    INDEX 01 03:10:13
  TRACK 148 AUDIO
    TITLE "17:cjc171_08524"
    INDEX 01 03:10:45
  TRACK 149 AUDIO
    TITLE "0:"
    INDEX 01 03:12:40
  TRACK 150 AUDIO
    TITLE "18:cjc171_08525"
    INDEX 01 03:13:22
  TRACK 151 AUDIO
    TITLE "0:"
    INDEX 01 03:15:18
  TRACK 152 AUDIO
    TITLE "16:cjc171_08526"
    INDEX 01 03:16:22
  TRACK 153 AUDIO
    TITLE "0:"
    INDEX 01 03:17:29
  TRACK 154 AUDIO
    TITLE "17:cjc171_08527"
    INDEX 01 03:17:60
  TRACK 155 AUDIO
    TITLE "0:"
    INDEX 01 03:20:39
  TRACK 156 AUDIO
    TITLE "18:cjc171_08528"
    INDEX 01 03:21:17
  TRACK 157 AUDIO
    TITLE "0:"
    INDEX 01 03:23:71
  TRACK 158 AUDIO
    TITLE "16:cjc171_08529"
    INDEX 01 03:24:74
  TRACK 159 AUDIO
    TITLE "0:"
    INDEX 01 03:26:03
  TRACK 160 AUDIO
    TITLE "17:cjc171_08530"
    INDEX 01 03:26:30
  TRACK 161 AUDIO
    TITLE "0:"
    INDEX 01 03:28:72
  TRACK 162 AUDIO
    TITLE "18:cjc171_08531"
    INDEX 01 03:29:52
  TRACK 163 AUDIO
    TITLE "0:"
    INDEX 01 03:32:19
  TRACK 164 AUDIO
    TITLE "16:cjc171_08532"
    INDEX 01 03:33:22
  TRACK 165 AUDIO
    TITLE "0:"
    INDEX 01 03:34:45
  TRACK 166 AUDIO
    TITLE "17:cjc171_08533"
    INDEX 01 03:34:65
  TRACK 167 AUDIO
    TITLE "0:"
    INDEX 01 03:37:16
  TRACK 168 AUDIO
    TITLE "18:cjc171_08534"
    INDEX 01 03:37:63
  TRACK 169 AUDIO
    TITLE "0:"
    INDEX 01 03:40:14
  TRACK 170 AUDIO
    TITLE "16:cjc171_08535"
    INDEX 01 03:41:10
  TRACK 171 AUDIO
    TITLE "0:"
    INDEX 01 03:42:33
  TRACK 172 AUDIO
    TITLE "17:cjc171_08536"
    INDEX 01 03:42:60
  TRACK 173 AUDIO
    TITLE "0:"
    INDEX 01 03:45:02
  TRACK 174 AUDIO
    TITLE "18:cjc171_08537"
    INDEX 01 03:45:53
  TRACK 175 AUDIO
    TITLE "0:"
    INDEX 01 03:47:69
  TRACK 176 AUDIO
    TITLE "16:cjc171_08538"
    INDEX 01 03:48:65
  TRACK 177 AUDIO
    TITLE "0:"
    INDEX 01 03:50:17
  TRACK 178 AUDIO
    TITLE "17:cjc171_08539"
    INDEX 01 03:50:44
  TRACK 179 AUDIO
    TITLE "0:"
    INDEX 01 03:53:43
  TRACK 180 AUDIO
    TITLE "18:cjc171_08540"
    INDEX 01 03:54:20
  TRACK 181 AUDIO
    TITLE "0:"
    INDEX 01 03:57:17
